<svg xmlns="http://www.w3.org/2000/svg" xmlns:xlink="http://www.w3.org/1999/xlink" width="500" zoomAndPan="magnify" viewBox="0 0 375 60" height="80" preserveAspectRatio="xMidYMid meet" version="1.0"><defs><g/></defs><g fill="#fb5472" fill-opacity="1"><g transform="translate(1.227865, 54.458334)"><g><path d="M 29.207031 -29.644531 L 9.570312 -29.644531 L 9.570312 -40.964844 L 23.765625 -40.964844 L 23.765625 -50.03125 L 0.6875 -50.03125 C 0.3125 -50.03125 0 -49.71875 0 -49.46875 L 0 -0.5625 C 0 -0.3125 0.3125 0 0.6875 0 L 9.570312 0 L 9.570312 -20.574219 L 29.207031 -20.574219 C 29.582031 -20.574219 29.894531 -20.886719 29.894531 -21.140625 L 29.894531 -29.082031 C 29.894531 -29.394531 29.582031 -29.644531 29.207031 -29.644531 Z M 29.207031 -29.644531 "/></g></g></g><g fill="#1b2b7c" fill-opacity="1"><g transform="translate(32.61328, 54.458334)"><g><path d="M 28.769531 -24.890625 C 28.769531 -27.519531 26.703125 -29.644531 24.078125 -29.644531 C 21.453125 -29.644531 19.386719 -27.519531 19.386719 -24.890625 C 19.386719 -22.328125 21.453125 -20.199219 24.078125 -20.199219 C 26.703125 -20.199219 28.769531 -22.328125 28.769531 -24.890625 Z M 48.15625 -25.078125 C 48.15625 -37.523438 40.089844 -50.03125 24.140625 -50.03125 C 7.941406 -50.03125 0 -37.523438 0 -25.078125 C 0 -12.570312 7.941406 0 24.140625 0 C 40.089844 0 48.15625 -12.570312 48.15625 -25.078125 Z M 38.773438 -24.890625 C 38.773438 -16.824219 33.835938 -8.753906 24.140625 -8.753906 C 14.320312 -8.753906 9.445312 -16.824219 9.445312 -24.890625 C 9.445312 -33.085938 14.320312 -41.214844 24.140625 -41.214844 C 33.835938 -41.214844 38.773438 -33.085938 38.773438 -24.890625 Z M 38.773438 -24.890625 "/></g></g></g><g fill="#fb5472" fill-opacity="1"><g transform="translate(83.135414, 54.458334)"><g><path d="M 45.59375 -50.03125 L 35.585938 -50.03125 C 35.460938 -50.03125 35.085938 -49.96875 35.023438 -49.84375 L 23.203125 -33.148438 L 17.949219 -40.464844 L 6.316406 -40.464844 C 10.007812 -35.273438 13.632812 -30.082031 17.324219 -25.015625 L 0.1875 -0.9375 C -0.1875 -0.5 0.0625 0 0.6875 0 L 10.695312 0 C 10.820312 0 11.195312 -0.0625 11.257812 -0.1875 L 23.203125 -16.886719 L 28.394531 -9.570312 L 40.027344 -9.570312 C 36.335938 -14.757812 32.644531 -19.949219 28.957031 -25.015625 L 46.21875 -49.09375 C 46.53125 -49.53125 46.28125 -50.03125 45.59375 -50.03125 Z M 45.59375 -50.03125 "/></g></g></g><g fill="#000000" fill-opacity="1"><g transform="translate(131.770829, 54.458334)"><g/></g></g><g fill="#1b2b7c" fill-opacity="1"><g transform="translate(147.373693, 54.458334)"><g><path d="M 8.878906 -50.03125 L 0.6875 -50.03125 C 0.3125 -50.03125 0 -49.71875 0 -49.46875 L 0 -29.832031 L 9.570312 -29.832031 L 9.570312 -40.902344 C 20.449219 -41.464844 28.519531 -36.898438 28.519531 -25.015625 C 28.519531 -9.570312 15.636719 -8.941406 9.570312 -9.195312 L 9.570312 -20.199219 L 0 -20.199219 L 0 -0.5625 C 0 -0.3125 0.3125 0 0.6875 0 L 8.878906 0 C 21.328125 0 38.148438 -3.628906 38.148438 -25.015625 C 38.148438 -47.21875 21.078125 -50.03125 8.878906 -50.03125 Z M 8.878906 -50.03125 "/></g></g></g><g fill="#1b2b7c" fill-opacity="1"><g transform="translate(187.456172, 54.458334)"><g><path d="M 20.386719 -8.566406 L 15.386719 -8.566406 L 15.386719 -50.03125 L 5.816406 -50.03125 L 5.816406 -8.566406 L 0.6875 -8.566406 C 0.3125 -8.566406 0 -8.316406 0 -8.003906 L 0 -0.5625 C 0 -0.3125 0.3125 0 0.6875 0 L 20.386719 0 C 20.824219 0 21.078125 -0.3125 21.078125 -0.5625 L 21.078125 -8.003906 C 21.078125 -8.316406 20.824219 -8.566406 20.386719 -8.566406 Z M 20.386719 -8.566406 "/></g></g></g><g fill="#fb5472" fill-opacity="1"><g transform="translate(209.575514, 54.458334)"><g><path d="M 38.148438 -40.839844 L 38.148438 -49.46875 C 38.148438 -49.71875 37.898438 -50.03125 37.460938 -50.03125 L 29.332031 -50.03125 C 16.886719 -50.03125 0 -46.40625 0 -25.015625 C 0 -2.8125 17.074219 0 29.332031 0 L 37.460938 0 C 37.898438 0 38.148438 -0.3125 38.148438 -0.5625 L 38.148438 -31.207031 L 18.949219 -31.207031 L 18.949219 -21.640625 L 28.582031 -21.640625 L 28.582031 -9.132812 C 17.699219 -8.566406 9.632812 -13.132812 9.632812 -25.015625 C 9.632812 -40.464844 22.515625 -41.089844 28.582031 -40.839844 Z M 38.148438 -40.839844 "/></g></g></g><g fill="#1b2b7c" fill-opacity="1"><g transform="translate(249.645826, 54.458334)"><g><path d="M 20.386719 -8.566406 L 15.386719 -8.566406 L 15.386719 -50.03125 L 5.816406 -50.03125 L 5.816406 -8.566406 L 0.6875 -8.566406 C 0.3125 -8.566406 0 -8.316406 0 -8.003906 L 0 -0.5625 C 0 -0.3125 0.3125 0 0.6875 0 L 20.386719 0 C 20.824219 0 21.078125 -0.3125 21.078125 -0.5625 L 21.078125 -8.003906 C 21.078125 -8.316406 20.824219 -8.566406 20.386719 -8.566406 Z M 20.386719 -8.566406 "/></g></g></g><g fill="#1b2b7c" fill-opacity="1"><g transform="translate(271.781869, 54.458334)"><g><path d="M 10.320312 -31.894531 L 10.320312 -0.5625 C 10.320312 -0.3125 10.570312 0 11.007812 0 L 19.074219 0 C 19.511719 0 19.824219 -0.3125 19.824219 -0.5625 L 19.824219 -31.894531 Z M 0.6875 -41.464844 L 29.394531 -41.464844 C 29.832031 -41.464844 30.082031 -41.714844 30.082031 -42.027344 L 30.082031 -49.46875 C 30.082031 -49.71875 29.832031 -50.03125 29.394531 -50.03125 L 0.6875 -50.03125 C 0.3125 -50.03125 0 -49.71875 0 -49.46875 L 0 -42.027344 C 0 -41.714844 0.3125 -41.464844 0.6875 -41.464844 Z M 0.6875 -41.464844 "/></g></g></g><g fill="#fb5472" fill-opacity="1"><g transform="translate(303.342439, 54.458334)"><g><path d="M 39.277344 -0.75 L 20.261719 -49.65625 C 20.074219 -50.15625 19.199219 -50.15625 19.011719 -49.65625 L 0.0625 -0.75 C -0.125 -0.375 0.125 0 0.6875 0 L 9.257812 0 C 9.507812 0 9.820312 -0.125 9.882812 -0.375 L 19.636719 -28.269531 L 29.519531 -0.375 C 29.582031 -0.125 29.894531 0 30.082031 0 L 38.710938 0 C 39.152344 0 39.464844 -0.375 39.277344 -0.75 Z M 39.277344 -0.75 "/></g></g></g><g fill="#1b2b7c" fill-opacity="1"><g transform="translate(344.610676, 54.458334)"><g><path d="M 27.019531 -9.320312 L 0 -9.320312 L 0 -0.5625 C 0 -0.3125 0.3125 0 0.6875 0 L 27.019531 0 C 27.457031 0 27.707031 -0.3125 27.707031 -0.5625 L 27.707031 -8.691406 C 27.707031 -9.007812 27.457031 -9.320312 27.019531 -9.320312 Z M 9.570312 -18.886719 L 9.570312 -49.46875 C 9.570312 -49.71875 9.320312 -50.03125 8.941406 -50.03125 L 0.6875 -50.03125 C 0.3125 -50.03125 0 -49.71875 0 -49.46875 L 0 -18.886719 Z M 9.570312 -18.886719 "/></g></g></g></svg>